<?xml version="1.0" encoding="UTF-8"?>
<svg id="katman_1" data-name="katman 1" xmlns="http://www.w3.org/2000/svg" xmlns:xlink="http://www.w3.org/1999/xlink" viewBox="0 0 50 50">
  <defs>
    <style>
      .cls-1 {
        fill: none;
      }

      .cls-1, .cls-2 {
        stroke-width: 0px;
      }

      .cls-2 {
        fill: #fff;
      }

      .cls-3 {
        fill: #003358;
        stroke: #000;
        stroke-miterlimit: 10;
        stroke-width: 2px;
      }

      .cls-4 {
        clip-path: url(#clippath);
      }
    </style>
    <clipPath id="clippath">
      <path class="cls-1" d="m25,1.19C11.85,1.19,1.19,11.85,1.19,25s10.66,23.81,23.81,23.81,23.81-10.66,23.81-23.81S38.15,1.19,25,1.19Z"/>
    </clipPath>
  </defs>
  <path class="cls-3" d="m25,1.19C11.85,1.19,1.19,11.85,1.19,25s10.66,23.81,23.81,23.81,23.81-10.66,23.81-23.81S38.15,1.19,25,1.19Z"/>
  <g class="cls-4">
    <path class="cls-2" d="m28.58,33.71l-.3.46c-1.59,2.49-2.36,2.84-2.96,2.84-.45,0-.9-.23-.9-.74,0-1.04.94-4.21,1.77-7,.91-3.06,1.69-5.71,1.69-6.79,0-2.19-1.32-3.5-3.53-3.5s-3.86,1.01-6.19,3.61l-.66.74,1.88.76.33-.33c1.92-1.96,2.77-2.38,3.14-2.38h.02c.03.09.09.34.09.96,0,.26-.21,1.38-1.65,6.05h0c-.09.35-.19.68-.29,1.02-.76,2.66-1.42,4.97-1.42,6.01,0,2.36,1.93,4.07,4.6,4.07,2.21,0,3.81-1.17,5.9-4.33l.49-.75-1.99-.69Z"/>
    <path class="cls-2" d="m28.58,33.71l-.3.46c-1.59,2.49-2.36,2.84-2.96,2.84-.45,0-.9-.23-.9-.74,0-1.04.94-4.21,1.77-7,.91-3.06,1.69-5.71,1.69-6.79,0-2.19-1.32-3.5-3.53-3.5s-3.86,1.01-6.19,3.61l-.66.74,1.88.76.33-.33c1.92-1.96,2.77-2.38,3.14-2.38h.02c.03.09.09.34.09.96,0,.26-.21,1.38-1.65,6.05h0c-.09.35-.19.68-.29,1.02-.76,2.66-1.42,4.97-1.42,6.01,0,2.36,1.93,4.07,4.6,4.07,2.21,0,3.81-1.17,5.9-4.33l.49-.75-1.99-.69Z"/>
    <path class="cls-2" d="m26.17,17.16c1.78,0,3.24-1.45,3.24-3.24s-1.45-3.23-3.24-3.23-3.23,1.48-3.23,3.23,1.48,3.24,3.23,3.24Z"/>
    <path class="cls-2" d="m26.17,17.16c1.78,0,3.24-1.45,3.24-3.24s-1.45-3.23-3.24-3.23-3.23,1.48-3.23,3.23,1.48,3.24,3.23,3.24Z"/>
  </g>
</svg>