<?xml version="1.0" encoding="UTF-8"?>
<svg id="katman_1" data-name="katman 1" xmlns="http://www.w3.org/2000/svg" viewBox="0 0 50 50">
  <defs>
    <style>
      .cls-1 {
        stroke-width: 0px;
      }
    </style>
  </defs>
  <g>
    <path class="cls-1" d="m3.62,33.65h2.56c1.7,0,2.4.9,2.4,2.09s-.69,2.09-2.4,2.09h-.94v1.81h-1.62v-5.99Zm2.51,2.77c.56,0,.77-.3.77-.68s-.21-.68-.77-.68h-.89v1.37h.89Z"/>
    <path class="cls-1" d="m9.2,33.65h2.56c1.7,0,2.4.9,2.4,2.09,0,.81-.32,1.53-1.1,1.88l1.16,2.02h-1.6l-1-1.81h-.8v1.81h-1.62v-5.99Zm2.51,2.77c.56,0,.77-.3.77-.68s-.21-.68-.77-.68h-.89v1.37h.89Z"/>
    <path class="cls-1" d="m14.85,33.65h4.25v1.4h-2.63v.95h2.38v1.26h-2.38v.98h2.72v1.4h-4.34v-5.99Z"/>
    <path class="cls-1" d="m19.55,33.65h1.7l1.4,4.35h.09l1.4-4.35h1.7l-2.1,5.99h-2.1l-2.1-5.99Z"/>
    <path class="cls-1" d="m26.44,33.65h1.62v5.99h-1.62v-5.99Z"/>
    <path class="cls-1" d="m28.76,36.65c0-1.75,1.11-3.07,2.94-3.07s2.93,1.32,2.93,3.07-1.11,3.08-2.93,3.08-2.94-1.33-2.94-3.08Zm2.94,1.69c.87,0,1.26-.75,1.26-1.69s-.38-1.68-1.26-1.68-1.27.73-1.27,1.68.39,1.69,1.27,1.69Z"/>
    <path class="cls-1" d="m35.35,37.37v-3.71h1.63v3.58c0,.74.35,1.1.93,1.1s.92-.36.92-1.1v-3.58h1.64v3.71c0,1.64-1.08,2.36-2.57,2.36s-2.57-.72-2.57-2.36Z"/>
    <path class="cls-1" d="m41.19,37.55h1.69c.03.45.26.84.94.84.5,0,.84-.19.84-.56,0-.26-.17-.4-.63-.5l-.86-.17c-.89-.17-1.8-.56-1.8-1.75,0-1.26,1.04-1.84,2.45-1.84s2.43.62,2.43,1.98h-1.69c.03-.51-.39-.65-.79-.65-.54,0-.7.27-.7.51,0,.15.09.37.48.45l.77.15c1.6.32,2.07.92,2.07,1.8,0,1.39-1.21,1.91-2.57,1.91-1.57,0-2.62-.71-2.62-2.17Z"/>
    <path class="cls-1" d="m5.87,43.93h2.56c1.7,0,2.4.9,2.4,2.09,0,.81-.32,1.53-1.1,1.88l1.16,2.02h-1.6l-1-1.81h-.8v1.81h-1.62v-5.99Zm2.51,2.77c.56,0,.77-.3.77-.68s-.21-.68-.77-.68h-.89v1.37h.89Z"/>
    <path class="cls-1" d="m11.52,43.93h4.25v1.4h-2.63v.95h2.38v1.26h-2.38v.98h2.72v1.4h-4.34v-5.99Z"/>
    <path class="cls-1" d="m16.48,43.93h2.56c1.7,0,2.4.9,2.4,2.09s-.69,2.09-2.4,2.09h-.94v1.81h-1.62v-5.99Zm2.51,2.77c.56,0,.77-.3.77-.68s-.21-.68-.77-.68h-.89v1.37h.89Z"/>
    <path class="cls-1" d="m21.93,46.92c0-1.75,1.11-3.07,2.94-3.07s2.93,1.32,2.93,3.07-1.11,3.08-2.93,3.08-2.94-1.33-2.94-3.08Zm2.94,1.69c.87,0,1.26-.75,1.26-1.69s-.38-1.68-1.26-1.68-1.27.73-1.27,1.68.39,1.69,1.27,1.69Z"/>
    <path class="cls-1" d="m28.52,43.93h2.56c1.7,0,2.4.9,2.4,2.09,0,.81-.32,1.53-1.1,1.88l1.16,2.02h-1.6l-1-1.81h-.8v1.81h-1.62v-5.99Zm2.51,2.77c.56,0,.77-.3.77-.68s-.21-.68-.77-.68h-.89v1.37h.89Z"/>
    <path class="cls-1" d="m35.39,45.35h-1.65v-1.43h4.92v1.43h-1.65v4.56h-1.62v-4.56Z"/>
    <path class="cls-1" d="m38.94,47.83h1.69c.03.45.26.84.94.84.5,0,.84-.19.84-.56,0-.26-.17-.4-.63-.5l-.86-.17c-.89-.17-1.81-.56-1.81-1.75,0-1.26,1.04-1.84,2.45-1.84s2.43.62,2.43,1.98h-1.69c.03-.51-.39-.65-.79-.65-.54,0-.7.27-.7.51,0,.15.09.37.48.45l.77.15c1.6.32,2.07.92,2.07,1.8,0,1.39-1.21,1.91-2.57,1.91-1.57,0-2.62-.71-2.62-2.17Z"/>
  </g>
  <path id="icon" class="cls-1" d="m42.07,9.84c-.61-.78-1.52-1.23-2.51-1.23h-.5v-1.12c0-1.75-1.43-3.18-3.18-3.18h-15.95c-.35,0-.69-.17-.9-.45l-1.94-2.58c-.6-.8-1.55-1.27-2.55-1.27h-4.11c-1.75,0-3.18,1.43-3.18,3.18v21.14c0,1.75,1.43,3.18,3.18,3.18h25.92c1.45,0,2.72-.98,3.08-2.39l3.2-12.53c.25-.96.04-1.96-.57-2.74ZM9.71,25.17c-.25-.21-.39-.52-.39-.85V3.18c0-.62.5-1.12,1.12-1.12h4.11c.35,0,.69.17.9.45l1.94,2.58c.6.8,1.55,1.27,2.55,1.27h15.95c.62,0,1.12.5,1.12,1.12v1.12h-20.59c-1.45,0-2.72.99-3.08,2.39l-3.62,14.17Z"/>
</svg>